<?xml version="1.0" encoding="utf-8"?>
<!-- Generator: Adobe Illustrator 16.0.0, SVG Export Plug-In . SVG Version: 6.00 Build 0)  -->
<!DOCTYPE svg PUBLIC "-//W3C//DTD SVG 1.0//EN" "http://www.w3.org/TR/2001/REC-SVG-20010904/DTD/svg10.dtd">
<svg version="1.0" id="Layer_1" xmlns="http://www.w3.org/2000/svg" xmlns:xlink="http://www.w3.org/1999/xlink" x="0px" y="0px"
	 width="800px" height="500px" viewBox="0 0 800 500" enable-background="new 0 0 800 500" xml:space="preserve">
<g>
	<defs>
		<rect id="SVGID_1_" width="800" height="500"/>
	</defs>
	<clipPath id="SVGID_2_">
		<use xlink:href="#SVGID_1_"  overflow="visible"/>
	</clipPath>
	<polyline clip-path="url(#SVGID_2_)" fill="none" stroke="#CC3333" stroke-linecap="round" stroke-miterlimit="10" points="
		477.06,230.67 477.06,500 477.06,230.67 443,285.16 477.06,230.67 440.24,285.26 477.06,230.67 437.82,284.68 477.06,230.67 
		435.18,284.27 477.06,230.67 431.99,284.38 477.06,230.67 429.55,283.43 477.06,230.67 426.89,282.62 477.06,230.67 425.31,280.64 
		477.06,230.67 423.86,278.57 477.06,230.67 422.07,276.81 477.06,230.67 420.58,274.8 477.06,230.67 418.62,273.13 477.06,230.67 
		416.05,271.82 477.06,230.67 413.83,270.18 477.06,230.67 411.27,268.65 477.06,230.67 410.21,266.21 477.06,230.67 408.75,263.98 
		477.06,230.67 407.27,261.74 477.06,230.67 405.92,259.41 477.06,230.67 404.75,256.99 477.06,230.67 403.88,254.45 477.06,230.67 
		401.72,252.27 477.06,230.67 400.79,249.69 477.06,230.67 399.99,247.05 477.06,230.67 399.25,244.39 477.06,230.67 398.14,241.76 
		477.06,230.67 397.59,239.02 477.06,230.67 396.48,236.31 477.06,230.67 395.26,233.53 477.06,230.67 393.96,230.67 477.06,230.67 
		393.72,227.76 477.06,230.67 391.69,224.7 477.06,230.67 389.98,221.52 477.06,230.67 388.62,218.24 477.06,230.67 387.96,214.96 
		477.06,230.67 387.07,211.55 477.06,230.67 387.51,208.35 477.06,230.67 387.94,205.12 477.06,230.67 388.33,201.84 477.06,230.67 
		387.94,198.23 477.06,230.67 387.92,194.66 477.06,230.67 388.52,191.25 477.06,230.67 389.44,187.94 477.06,230.67 390.59,184.7 
		477.06,230.67 392.08,181.61 477.06,230.67 393.41,178.4 477.06,230.67 394.85,175.22 477.06,230.67 395.73,171.59 477.06,230.67 
		397.17,168.26 477.06,230.67 399.07,165.23 477.06,230.67 400.73,161.94 477.06,230.67 401.93,158.13 477.06,230.67 403,153.98 
		477.06,230.67 404.16,149.71 477.06,230.67 405.77,145.72 477.06,230.67 407.97,142.25 477.06,230.67 409.14,137.2 477.06,230.67 
		410.36,131.79 477.06,230.67 412.76,127.78 477.06,230.67 415.44,123.96 477.06,230.67 418.35,120.27 477.06,230.67 422,117.79 
		477.06,230.67 425.72,115.37 477.06,230.67 429.13,112.06 477.06,230.67 432.79,109.05 477.06,230.67 436.96,107.27 477.06,230.67 
		441.04,105.09 477.06,230.67 445.28,103.24 477.06,230.67 449.59,101.47 477.06,230.67 453.91,99.38 477.06,230.67 458.29,97.17 
		477.06,230.67 462.85,95.56 477.06,230.67 467.44,93.12 477.06,230.67 472.22,92.13 477.06,230.67 477.06,92.15 477.06,230.67 
		481.9,92.02 477.06,230.67 486.6,94.18 477.06,230.67 491.1,97.05 477.06,230.67 495.46,99.71 477.06,230.67 499.7,102.27 
		477.06,230.67 503.94,104.19 477.06,230.67 508.26,105.5 477.06,230.67 512.75,106.2 477.06,230.67 517,107.74 477.06,230.67 
		520.88,110.27 477.06,230.67 524.78,112.56 477.06,230.67 528.47,115.18 477.06,230.67 532.16,117.68 477.06,230.67 535.37,121 
		477.06,230.67 538.31,124.57 477.06,230.67 541.04,128.28 477.06,230.67 543.72,131.83 477.06,230.67 545.89,135.92 477.06,230.67 
		548.23,139.57 477.06,230.67 550.64,142.98 477.06,230.67 553,146.33 477.06,230.67 555.25,149.7 477.06,230.67 557.04,153.43 
		477.06,230.67 558.63,157.22 477.06,230.67 559.95,161.11 477.06,230.67 561.39,164.78 477.06,230.67 563.09,168.16 477.06,230.67 
		564.61,171.61 477.06,230.67 565.18,175.6 477.06,230.67 564.64,180.11 477.06,230.67 563.93,184.48 477.06,230.67 564.72,187.91 
		477.06,230.67 564.96,191.53 477.06,230.67 564.95,195.16 477.06,230.67 564.84,198.72 477.06,230.67 564.17,202.37 477.06,230.67 
		565.44,205.33 477.06,230.67 566.44,208.39 477.06,230.67 567.45,211.46 477.06,230.67 568.8,214.5 477.06,230.67 569.71,217.65 
		477.06,230.67 569.11,221 477.06,230.67 569.02,224.24 477.06,230.67 568.49,227.48 477.06,230.67 566.97,230.67 477.06,230.67 
		565.44,233.76 477.06,230.67 563.7,236.73 477.06,230.67 562.6,239.66 477.06,230.67 561.31,242.51 477.06,230.67 561.23,245.51 
		477.06,230.67 560.75,248.46 477.06,230.67 560.98,251.6 477.06,230.67 559.44,254.3 477.06,230.67 557.32,256.75 477.06,230.67 
		555.19,259.11 477.06,230.67 553.04,261.37 477.06,230.67 551.6,263.86 477.06,230.67 550.32,266.41 477.06,230.67 548.65,268.74 
		477.06,230.67 545.89,270.41 477.06,230.67 543.47,272.18 477.06,230.67 541.18,273.93 477.06,230.67 539.1,275.75 477.06,230.67 
		536.56,277.17 477.06,230.67 533.67,278.17 477.06,230.67 531.17,279.4 477.06,230.67 528.74,280.58 477.06,230.67 526.22,281.59 
		477.06,230.67 523.98,282.78 477.06,230.67 522.03,284.27 477.06,230.67 519.48,284.97 477.06,230.67 517.28,286.04 477.06,230.67 
		514.88,286.74 477.06,230.67 512.34,287.13 477.06,230.67 509.87,287.51 477.06,230.67 507.55,288.03 477.06,230.67 	"/>
	<polyline clip-path="url(#SVGID_2_)" fill="none" stroke="#CCB333" stroke-linecap="round" stroke-miterlimit="10" points="
		689.64,300.44 689.64,500 689.64,300.44 687.38,365.16 689.64,300.44 685.06,365.84 689.64,300.44 682.71,366.33 689.64,300.44 
		680.3,366.86 689.64,300.44 678.02,366.31 689.64,300.44 675.7,366.02 689.64,300.44 673.17,366.49 689.64,300.44 670.77,366.22 
		689.64,300.44 668.49,365.51 689.64,300.44 666.32,364.5 689.64,300.44 664.29,363.18 689.64,300.44 661.73,363.11 689.64,300.44 
		659.51,362.21 689.64,300.44 657.71,360.47 689.64,300.44 656.23,358.3 689.64,300.44 654.61,356.48 689.64,300.44 652.49,355.5 
		689.64,300.44 650.1,354.85 689.64,300.44 647.96,353.78 689.64,300.44 645.87,352.59 689.64,300.44 644.46,350.6 689.64,300.44 
		641.42,350.36 689.64,300.44 638.42,349.89 689.64,300.44 635.6,349.08 689.64,300.44 633.51,347.53 689.64,300.44 631.28,346.03 
		689.64,300.44 628.84,344.61 689.64,300.44 627.01,342.67 689.64,300.44 625.49,340.51 689.64,300.44 623.94,338.36 689.64,300.44 
		623.26,335.72 689.64,300.44 621.12,333.85 689.64,300.44 619.48,331.67 689.64,300.44 617.79,329.46 689.64,300.44 616.12,327.19 
		689.64,300.44 613.73,325.09 689.64,300.44 612.22,322.63 689.64,300.44 610.95,320.05 689.64,300.44 609.75,317.41 689.64,300.44 
		608.73,314.7 689.64,300.44 608.16,311.88 689.64,300.44 606.64,309.15 689.64,300.44 604.9,306.35 689.64,300.44 604.1,303.42 
		689.64,300.44 604.72,300.43 689.64,300.44 605.34,297.49 689.64,300.44 604.9,294.5 689.64,300.44 602.94,291.32 689.64,300.44 
		601.97,288.11 689.64,300.44 601.78,284.94 689.64,300.44 601.46,281.68 689.64,300.44 600.55,278.21 689.64,300.44 600.43,274.85 
		689.64,300.44 600.52,271.47 689.64,300.44 600.62,268.03 689.64,300.44 600.86,264.56 689.64,300.44 600.71,260.83 689.64,300.44 
		601.7,257.53 689.64,300.44 603.22,254.47 689.64,300.44 603.95,250.95 689.64,300.44 605.04,247.56 689.64,300.44 605.86,243.91 
		689.64,300.44 606.16,239.77 689.64,300.44 606.11,235.16 689.64,300.44 605.93,230.18 689.64,300.44 606.74,225.78 689.64,300.44 
		608.72,222.27 689.64,300.44 610.77,218.74 689.64,300.44 612.41,214.64 689.64,300.44 613.56,209.75 689.64,300.44 615.84,205.95 
		689.64,300.44 619.16,203.41 689.64,300.44 621.89,199.96 689.64,300.44 624.82,196.68 689.64,300.44 627.99,193.63 689.64,300.44 
		631.18,190.46 689.64,300.44 634.17,186.67 689.64,300.44 637.66,183.66 689.64,300.44 641.44,181.1 689.64,300.44 645.64,179.52 
		689.64,300.44 649.83,177.87 689.64,300.44 653.74,175.18 689.64,300.44 657.77,172.54 689.64,300.44 661.94,170.05 689.64,300.44 
		666.19,167.33 689.64,300.44 670.7,165.55 689.64,300.44 675.31,163.94 689.64,300.44 680.03,162.78 689.64,300.44 684.81,161.65 
		689.64,300.44 689.65,160.27 689.64,300.44 694.58,159.32 689.64,300.44 699.45,160.36 689.64,300.44 704.17,162.38 689.64,300.44 
		708.82,164.04 689.64,300.44 713.37,165.93 689.64,300.44 717.8,168.02 689.64,300.44 722.08,170.37 689.64,300.44 726.05,173.52 
		689.64,300.44 730.01,176.23 689.64,300.44 733.88,178.92 689.64,300.44 737.67,181.6 689.64,300.44 741.24,184.58 689.64,300.44 
		744.39,188.22 689.64,300.44 747.61,191.43 689.64,300.44 750.8,194.53 689.64,300.44 753.97,197.51 689.64,300.44 757.15,200.36 
		689.64,300.44 759.79,203.9 689.64,300.44 762.58,207.1 689.64,300.44 765.24,210.36 689.64,300.44 767.76,213.69 689.64,300.44 
		769.85,217.39 689.64,300.44 771.84,221.07 689.64,300.44 774.15,224.36 689.64,300.44 776.86,227.26 689.64,300.44 778.62,230.93 
		689.64,300.44 779.73,235 689.64,300.44 779.48,239.85 689.64,300.44 779.72,244.16 689.64,300.44 780.3,248.1 689.64,300.44 
		780.11,252.34 689.64,300.44 781.62,255.58 689.64,300.44 782.12,259.27 689.64,300.44 782.68,262.85 689.64,300.44 783.68,266.22 
		689.64,300.44 784.21,269.72 689.64,300.44 784.25,273.32 689.64,300.44 783.18,277.12 689.64,300.44 782.22,280.77 689.64,300.44 
		781.55,284.24 689.64,300.44 781.18,287.58 689.64,300.44 780.96,290.85 689.64,300.44 781.07,294.05 689.64,300.44 780.76,297.26 
		689.64,300.44 780.41,300.45 689.64,300.44 778.85,303.56 689.64,300.44 777.98,306.62 689.64,300.44 776.76,309.6 689.64,300.44 
		775.56,312.52 689.64,300.44 774.71,315.45 689.64,300.44 773.3,318.23 689.64,300.44 771.65,320.89 689.64,300.44 768.89,323.17 
		689.64,300.44 766.21,325.33 689.64,300.44 764.21,327.59 689.64,300.44 761.84,329.62 689.64,300.44 760.87,332.16 689.64,300.44 
		760.51,335.01 689.64,300.44 759.79,337.74 689.64,300.44 758.35,340.12 689.64,300.44 756.92,342.49 689.64,300.44 755.35,344.77 
		689.64,300.44 753.1,346.55 689.64,300.44 749.96,347.58 689.64,300.44 746.93,348.52 689.64,300.44 743.44,348.89 689.64,300.44 
		740.94,349.99 689.64,300.44 739.35,351.93 689.64,300.44 737.83,353.97 689.64,300.44 736.03,355.74 689.64,300.44 734.18,357.45 
		689.64,300.44 731.39,357.92 689.64,300.44 728.64,358.27 689.64,300.44 726.64,359.66 689.64,300.44 724.76,361.29 689.64,300.44 
		722.18,361.66 689.64,300.44 720.24,363.19 689.64,300.44 717.89,363.92 689.64,300.44 715.81,365.24 689.64,300.44 713.48,365.97 
		689.64,300.44 711,366.22 689.64,300.44 708.74,367.08 689.64,300.44 706.27,367.18 689.64,300.44 703.83,367.23 689.64,300.44 
		701.47,367.59 689.64,300.44 699.11,367.91 689.64,300.44 696.58,366.54 689.64,300.44 694.15,365 689.64,300.44 691.86,364.12 
		689.64,300.44 689.63,364.06 689.64,300.44 687.4,364.29 689.64,300.44 685.26,362.93 689.64,300.44 683.23,361.34 689.64,300.44 
		681.12,360.97 689.64,300.44 679,360.73 689.64,300.44 677.11,359.33 689.64,300.44 674.91,359.5 689.64,300.44 672.69,359.51 
		689.64,300.44 670.3,359.92 689.64,300.44 667.85,360.29 689.64,300.44 665.59,359.95 689.64,300.44 663.4,359.35 689.64,300.44 
		661.49,358.13 689.64,300.44 659.38,357.33 689.64,300.44 656.97,357 689.64,300.44 654.67,356.38 689.64,300.44 652.28,355.8 
		689.64,300.44 650.68,354.04 689.64,300.44 648.24,353.4 689.64,300.44 645.79,352.68 689.64,300.44 643.97,351.14 689.64,300.44 
		641.72,350.04 689.64,300.44 639.66,348.69 689.64,300.44 637.64,347.25 689.64,300.44 635.15,346.15 689.64,300.44 632.74,344.88 
		689.64,300.44 630.73,343.23 689.64,300.44 628.77,341.49 689.64,300.44 625.92,340.24 689.64,300.44 623.16,338.81 689.64,300.44 
		621.21,336.81 689.64,300.44 619.95,334.42 689.64,300.44 618.52,332.09 689.64,300.44 617.03,329.76 689.64,300.44 616.52,327.04 
		689.64,300.44 616.32,324.25 689.64,300.44 614.65,321.93 689.64,300.44 612.19,319.74 689.64,300.44 610.57,317.23 689.64,300.44 
		609.28,314.6 689.64,300.44 608.28,311.86 689.64,300.44 606.55,309.16 689.64,300.44 605.11,306.34 689.64,300.44 604.08,303.42 
		689.64,300.44 603.04,300.43 689.64,300.44 602.48,297.38 689.64,300.44 601.59,294.27 689.64,300.44 601.58,291.17 689.64,300.44 
		601.46,288.03 689.64,300.44 601.31,284.85 689.64,300.44 601.64,281.72 689.64,300.44 601.38,278.42 689.64,300.44 600.73,274.93 
		689.64,300.44 600.61,271.5 689.64,300.44 600.58,268.01 689.64,300.44 601.25,264.72 689.64,300.44 600.37,260.68 689.64,300.44 
		599.38,256.41 689.64,300.44 599.32,252.4 689.64,300.44 600.86,249.17 689.64,300.44 602.36,245.89 689.64,300.44 603.82,242.54 
		689.64,300.44 605.27,239.12 689.64,300.44 606.54,235.5 689.64,300.44 607.08,231.15 689.64,300.44 607.8,226.74 689.64,300.44 
		610.85,224.34 689.64,300.44 614.07,222.17 689.64,300.44 616.92,219.66 689.64,300.44 619.68,217.04 689.64,300.44 621.44,213.13 
		689.64,300.44 623.96,210.02 689.64,300.44 626.57,206.91 689.64,300.44 629.27,203.81 689.64,300.44 632.08,200.71 689.64,300.44 
		634.74,197.16 689.64,300.44 637.28,193.05 689.64,300.44 640.06,189.05 689.64,300.44 643.4,185.97 689.64,300.44 646.97,183.17 
		689.64,300.44 650.64,180.37 689.64,300.44 654.39,177.48 689.64,300.44 658.22,174.39 689.64,300.44 662.37,172.09 689.64,300.44 
		666.61,169.76 689.64,300.44 670.73,165.84 689.64,300.44 675.26,163.51 689.64,300.44 679.89,160.86 689.64,300.44 684.68,158.2 
		689.64,300.44 689.65,155.96 689.64,300.44 694.72,155.22 689.64,300.44 699.7,156.65 689.64,300.44 704.57,158.46 689.64,300.44 
		709.2,161.34 689.64,300.44 713.55,164.91 689.64,300.44 718.01,167.01 689.64,300.44 722.31,169.46 689.64,300.44 726.62,171.5 
		689.64,300.44 730.62,174.36 689.64,300.44 734.33,177.67 689.64,300.44 738.2,180.28 689.64,300.44 741.62,183.71 689.64,300.44 
		745.29,186.36 689.64,300.44 748.84,189.11 689.64,300.44 752.52,191.53 689.64,300.44 755.76,194.64 689.64,300.44 758.65,198.14 
		689.64,300.44 761.45,201.61 689.64,300.44 763.92,205.37 689.64,300.44 765.89,209.58 689.64,300.44 767.98,213.44 689.64,300.44 
		770.17,217.06 689.64,300.44 772.84,220.1 689.64,300.44 774.54,224 689.64,300.44 775.43,228.46 689.64,300.44 776.42,232.65 
		689.64,300.44 777.39,236.69 689.64,300.44 778.62,240.43 689.64,300.44 779.33,244.4 689.64,300.44 780.08,248.23 689.64,300.44 
		781.05,251.84 689.64,300.44 782.07,255.36 689.64,300.44 782.5,259.1 689.64,300.44 781.86,263.18 689.64,300.44 781.01,267.19 
		689.64,300.44 780.77,270.83 689.64,300.44 780.61,274.36 689.64,300.44 779.65,278 689.64,300.44 778.93,281.46 689.64,300.44 
		778.29,284.81 689.64,300.44 778.59,287.94 689.64,300.44 777.79,291.18 689.64,300.44 777.31,294.31 689.64,300.44 777.22,297.38 
		689.64,300.44 777.2,300.44 689.64,300.44 776.96,303.49 689.64,300.44 775.04,306.41 689.64,300.44 772.71,309.17 689.64,300.44 
		771.29,311.92 689.64,300.44 770.44,314.69 689.64,300.44 768.39,317.18 689.64,300.44 766.49,319.6 689.64,300.44 765.63,322.23 
		689.64,300.44 764.79,324.86 689.64,300.44 763.14,327.2 689.64,300.44 761.11,329.32 689.64,300.44 759.55,331.57 689.64,300.44 
		758.15,333.86 689.64,300.44 756.85,336.18 689.64,300.44 755.07,338.22 689.64,300.44 753.07,340.08 689.64,300.44 750.99,341.83 
		689.64,300.44 748.66,343.32 689.64,300.44 746.27,344.69 689.64,300.44 744,346.06 689.64,300.44 742.23,347.8 689.64,300.44 
		740.94,349.99 689.64,300.44 739.69,352.27 689.64,300.44 738.63,354.86 689.64,300.44 737.67,357.69 689.64,300.44 735.54,359.2 
		689.64,300.44 733.29,360.53 689.64,300.44 730.49,361.01 689.64,300.44 727.42,360.9 689.64,300.44 724.16,360.23 689.64,300.44 
		721.07,359.57 689.64,300.44 719.07,360.79 689.64,300.44 716.96,361.81 689.64,300.44 714.78,362.67 689.64,300.44 712.54,363.38 
		689.64,300.44 710.29,364.02 689.64,300.44 707.82,363.85 689.64,300.44 705.63,364.6 689.64,300.44 703.43,365.35 689.64,300.44 
		701.23,366.23 689.64,300.44 699.02,367.21 689.64,300.44 696.63,367.01 689.64,300.44 694.31,367.38 689.64,300.44 691.99,367.82 
		689.64,300.44 689.63,368.31 689.64,300.44 687.26,368.3 689.64,300.44 684.95,367.38 689.64,300.44 682.57,367.6 689.64,300.44 
		680.33,366.66 689.64,300.44 678.14,365.6 689.64,300.44 675.96,364.76 689.64,300.44 673.78,364.04 689.64,300.44 671.71,362.93 
		689.64,300.44 669.66,361.9 689.64,300.44 667.78,360.47 689.64,300.44 665.74,359.58 689.64,300.44 663.26,359.67 689.64,300.44 
		661.15,358.83 689.64,300.44 659.45,357.2 689.64,300.44 657.58,355.96 689.64,300.44 655.3,355.38 689.64,300.44 653.44,354.09 
		689.64,300.44 651.58,352.81 689.64,300.44 649.44,351.87 689.64,300.44 647.54,350.6 689.64,300.44 645.77,349.15 689.64,300.44 
		643.42,348.29 689.64,300.44 640.1,348.27 689.64,300.44 637.36,347.5 689.64,300.44 634.82,346.43 689.64,300.44 632.47,345.1 
		689.64,300.44 628.87,344.58 689.64,300.44 625.44,343.73 689.64,300.44 622.56,342.34 689.64,300.44 620.21,340.51 689.64,300.44 
		618.27,338.37 689.64,300.44 617.14,335.79 689.64,300.44 615.51,333.44 689.64,300.44 614.51,330.78 689.64,300.44 614.11,327.92 
		689.64,300.44 613.6,325.14 689.64,300.44 612.12,322.66 689.64,300.44 610.65,320.12 689.64,300.44 608.96,317.58 689.64,300.44 
		606.43,315.1 689.64,300.44 605.32,312.28 689.64,300.44 603.49,309.48 689.64,300.44 602.74,306.51 689.64,300.44 601.84,303.5 
		689.64,300.44 600.89,300.43 689.64,300.44 599.95,297.3 689.64,300.44 599.25,294.11 689.64,300.44 599.39,290.94 689.64,300.44 
		599.25,287.73 689.64,300.44 599.08,284.46 689.64,300.44 598.92,281.15 689.64,300.44 599.15,277.87 689.64,300.44 598.88,274.41 
		689.64,300.44 598.1,270.69 689.64,300.44 597.8,267 689.64,300.44 597.96,263.39 689.64,300.44 600.1,260.56 689.64,300.44 
		602.62,257.99 689.64,300.44 604.54,255.18 689.64,300.44 605.26,251.71 689.64,300.44 606,248.17 689.64,300.44 606.64,244.44 
		689.64,300.44 607.12,240.47 689.64,300.44 607.9,236.57 689.64,300.44 609.28,233 689.64,300.44 610.81,229.45 689.64,300.44 
		611.81,225.27 689.64,300.44 612.73,220.78 689.64,300.44 614.13,216.57 689.64,300.44 615.73,212.35 689.64,300.44 617.74,208.39 
		689.64,300.44 619.88,204.41 689.64,300.44 623.11,201.8 689.64,300.44 626.18,198.87 689.64,300.44 629.21,195.76 689.64,300.44 
		632.49,192.93 689.64,300.44 635.64,189.71 689.64,300.44 639.09,186.89 689.64,300.44 642.77,184.43 689.64,300.44 646.43,181.71 
		689.64,300.44 649.75,177.65 689.64,300.44 653.65,174.9 689.64,300.44 657.86,172.96 689.64,300.44 662.06,170.65 689.64,300.44 
		666.29,167.96 689.64,300.44 670.84,166.62 689.64,300.44 675.57,166.55 689.64,300.44 680.32,167.06 689.64,300.44 684.98,166.91 
		689.64,300.44 689.64,166.26 689.64,300.44 694.38,164.91 689.64,300.44 699.04,166.11 689.64,300.44 703.61,167.52 689.64,300.44 
		708.22,168.26 689.64,300.44 712.9,168.56 689.64,300.44 717.36,170.07 689.64,300.44 721.51,172.61 689.64,300.44 725.49,175.41 
		689.64,300.44 729.46,177.9 689.64,300.44 733.24,180.66 689.64,300.44 736.76,183.83 689.64,300.44 740.07,187.17 689.64,300.44 
		743.46,190.1 689.64,300.44 747.01,192.55 689.64,300.44 750.59,194.88 689.64,300.44 753.82,197.74 689.64,300.44 756.66,201.08 
		689.64,300.44 759.03,204.93 689.64,300.44 761.49,208.47 689.64,300.44 763.82,212.04 689.64,300.44 766.24,215.36 689.64,300.44 
		768.43,218.86 689.64,300.44 770.7,222.16 689.64,300.44 772.06,226.23 689.64,300.44 773.44,230.12 689.64,300.44 774.23,234.35 
		689.64,300.44 774.2,239 689.64,300.44 775.19,242.73 689.64,300.44 776.55,246.13 689.64,300.44 776.72,250.16 689.64,300.44 
		776.88,254.05 689.64,300.44 777.26,257.71 689.64,300.44 778.48,260.88 689.64,300.44 780.22,263.84 689.64,300.44 782.42,266.67 
		689.64,300.44 783.66,269.89 689.64,300.44 783.69,273.47 689.64,300.44 784.05,276.9 689.64,300.44 784.89,280.19 689.64,300.44 
		785.87,283.47 689.64,300.44 785.74,286.93 689.64,300.44 784.98,290.42 689.64,300.44 784.37,293.82 689.64,300.44 783.56,297.16 
		689.64,300.44 782.67,300.44 689.64,300.44 781.74,303.66 689.64,300.44 779.21,306.7 689.64,300.44 775.79,309.49 689.64,300.44 
		773.27,312.19 689.64,300.44 771.44,314.86 689.64,300.44 768.98,317.3 689.64,300.44 768.26,320.04 689.64,300.44 767.62,322.8 
		689.64,300.44 767.23,325.65 689.64,300.44 766.54,328.43 689.64,300.44 764.79,330.8 689.64,300.44 763.81,333.46 689.64,300.44 
		762.92,336.18 689.64,300.44 760.9,338.33 689.64,300.44 757.37,339.54 689.64,300.44 754.86,341.2 689.64,300.44 752.89,343.1 
		689.64,300.44 751.18,345.15 689.64,300.44 748.95,346.78 689.64,300.44 746.96,348.54 689.64,300.44 745.4,350.65 689.64,300.44 
		742.17,351.17 689.64,300.44 738.16,350.68 689.64,300.44 735.36,351.21 689.64,300.44 733.55,352.78 689.64,300.44 731.6,354.15 
		689.64,300.44 729.72,355.61 689.64,300.44 727.38,356.4 689.64,300.44 725.16,357.29 689.64,300.44 723.11,358.41 689.64,300.44 
		721.49,360.34 689.64,300.44 719.87,362.43 689.64,300.44 717.83,363.76 689.64,300.44 715.9,365.45 689.64,300.44 713.47,365.93 
		689.64,300.44 710.66,365.15 689.64,300.44 708.23,365.28 689.64,300.44 705.9,365.65 689.64,300.44 703.51,365.71 689.64,300.44 
		701.17,365.83 689.64,300.44 698.81,365.69 689.64,300.44 696.56,366.27 689.64,300.44 694.3,367.16 689.64,300.44 691.96,367.1 
		689.64,300.44 689.64,366.34 689.64,300.44 687.32,366.73 689.64,300.44 684.98,367.02 689.64,300.44 682.69,366.53 689.64,300.44 
		680.47,365.63 689.64,300.44 678.27,364.92 689.64,300.44 676.08,364.22 689.64,300.44 673.75,364.15 689.64,300.44 671.07,365.17 
		689.64,300.44 668.59,365.22 689.64,300.44 666.27,364.63 689.64,300.44 664.07,363.7 689.64,300.44 661.64,363.32 689.64,300.44 
		658.87,363.52 689.64,300.44 656.25,363.22 689.64,300.44 654.28,361.68 689.64,300.44 652.58,359.74 689.64,300.44 650.76,358.08 
		689.64,300.44 648.71,356.77 689.64,300.44 646.89,355.14 689.64,300.44 644.59,354.12 689.64,300.44 642.27,353.04 689.64,300.44 
		640.32,351.5 689.64,300.44 638.99,349.34 689.64,300.44 637.2,347.65 689.64,300.44 635.45,345.9 689.64,300.44 634.12,343.81 
		689.64,300.44 631.9,342.38 689.64,300.44 630.05,340.63 689.64,300.44 628.67,338.53 689.64,300.44 627.43,336.35 689.64,300.44 
		625.8,334.37 689.64,300.44 623.14,332.87 689.64,300.44 620.86,331.06 689.64,300.44 618.75,329.07 689.64,300.44 617.28,326.77 
		689.64,300.44 615.64,324.48 689.64,300.44 614.29,322.04 689.64,300.44 612.78,319.6 689.64,300.44 611.88,316.96 689.64,300.44 
		610.89,314.32 689.64,300.44 609.09,311.75 689.64,300.44 607.59,309.06 689.64,300.44 606.05,306.28 689.64,300.44 603.39,303.45 
		689.64,300.44 600.44,300.43 689.64,300.44 598.7,297.26 689.64,300.44 597.13,293.96 689.64,300.44 595.88,290.58 689.64,300.44 
		595.13,287.15 689.64,300.44 595.2,283.78 689.64,300.44 595.78,280.48 689.64,300.44 595.08,276.86 689.64,300.44 594.53,273.16 
		689.64,300.44 595.35,269.8 689.64,300.44 596.86,266.67 689.64,300.44 598.2,263.49 689.64,300.44 599.75,260.41 689.64,300.44 
		600.73,257.07 689.64,300.44 601.78,253.72 689.64,300.44 602.57,250.17 689.64,300.44 603.51,246.61 689.64,300.44 604.46,242.98 
		689.64,300.44 604.42,238.52 689.64,300.44 604.67,234.05 689.64,300.44 605.33,229.69 689.64,300.44 606.95,225.98 689.64,300.44 
		609.02,222.58 689.64,300.44 612.31,220.35 689.64,300.44 614.96,217.49 689.64,300.44 617.09,213.97 689.64,300.44 619.57,210.75 
		689.64,300.44 621.4,206.51 689.64,300.44 623.56,202.47 689.64,300.44 625.74,198.17 689.64,300.44 628.2,194.02 689.64,300.44 
		631.2,190.52 689.64,300.44 634.65,187.69 689.64,300.44 638.43,185.43 689.64,300.44 642.15,182.9 689.64,300.44 645.92,180.32 
		689.64,300.44 649.91,178.17 689.64,300.44 653.82,175.52 689.64,300.44 658.18,174.26 689.64,300.44 662.54,172.94 689.64,300.44 
		666.68,170.2 689.64,300.44 671.08,168.39 689.64,300.44 675.59,166.8 689.64,300.44 680.25,166.13 689.64,300.44 684.89,164.56 
		689.64,300.44 689.64,163.47 689.64,300.44 694.44,163 689.64,300.44 699.21,163.59 689.64,300.44 704.03,163.51 689.64,300.44 
		708.67,165.05 689.64,300.44 713.03,167.77 689.64,300.44 717.44,169.63 689.64,300.44 721.31,173.41 689.64,300.44 725.2,176.43 
		689.64,300.44 729.03,179.19 689.64,300.44 732.69,182.15 689.64,300.44 736.34,184.85 689.64,300.44 739.48,188.5 689.64,300.44 
		742.87,191.29 689.64,300.44 746.36,193.75 689.64,300.44 749.84,196.16 689.64,300.44 753.53,198.19 689.64,300.44 757,200.58 
		689.64,300.44 760.5,202.9 689.64,300.44 763.36,206.07 689.64,300.44 765.64,209.86 689.64,300.44 767.8,213.63 689.64,300.44 
		769.48,217.75 689.64,300.44 771.08,221.79 689.64,300.44 772.3,226.01 689.64,300.44 773.23,230.29 689.64,300.44 774.1,234.44 
		689.64,300.44 775.3,238.2 689.64,300.44 776.62,241.77 689.64,300.44 777.72,245.4 689.64,300.44 778.06,249.39 689.64,300.44 
		778.89,252.98 689.64,300.44 780.19,256.27 689.64,300.44 781.27,259.64 689.64,300.44 781.89,263.16 689.64,300.44 781.98,266.83 
		689.64,300.44 781.99,270.43 689.64,300.44 782.34,273.85 689.64,300.44 782.59,277.26 689.64,300.44 782.48,280.7 689.64,300.44 
		782.53,284.06 689.64,300.44 782.27,287.42 689.64,300.44 781.49,290.78 689.64,300.44 780.84,294.06 689.64,300.44 780.07,297.28 
		689.64,300.44 780.18,300.44 689.64,300.44 779.35,303.57 689.64,300.44 778.91,306.68 689.64,300.44 777.34,309.65 689.64,300.44 
		775.28,312.47 689.64,300.44 773.44,315.21 689.64,300.44 772.47,318.04 689.64,300.44 770.53,320.6 689.64,300.44 769.5,323.34 
		689.64,300.44 768.25,325.98 689.64,300.44 766.24,328.32 689.64,300.44 764.05,330.5 689.64,300.44 762.17,332.73 689.64,300.44 
		761.11,335.29 689.64,300.44 759.72,337.7 689.64,300.44 757.89,339.84 689.64,300.44 756.54,342.24 689.64,300.44 753.52,343.52 
		689.64,300.44 750.71,344.81 689.64,300.44 747.98,346.02 689.64,300.44 745.82,347.58 689.64,300.44 744.05,349.43 689.64,300.44 
		741.65,350.66 689.64,300.44 739.08,351.63 689.64,300.44 736.64,352.64 689.64,300.44 733.73,352.98 689.64,300.44 731.52,354.05 
		689.64,300.44 729.8,355.72 689.64,300.44 727.95,357.24 689.64,300.44 726.59,359.57 689.64,300.44 725.45,362.47 689.64,300.44 
		723.92,364.91 689.64,300.44 721.32,365.4 689.64,300.44 718.7,365.71 689.64,300.44 716.2,366.18 689.64,300.44 713.92,367.14 
		689.64,300.44 711.6,368.03 689.64,300.44 709.4,369.35 689.64,300.44 706.85,369.48 689.64,300.44 704.22,369.04 689.64,300.44 
		701.49,367.65 689.64,300.44 698.89,366.25 689.64,300.44 696.47,365.42 689.64,300.44 694.1,364.24 689.64,300.44 691.81,362.77 
		689.64,300.44 689.64,362.43 689.64,300.44 687.49,362.03 689.64,300.44 685.34,361.96 689.64,300.44 683.15,362.17 689.64,300.44 
		680.9,362.58 689.64,300.44 678.71,362.43 689.64,300.44 676.44,362.53 689.64,300.44 674,363.15 689.64,300.44 671.6,363.33 
		689.64,300.44 668.97,364.04 689.64,300.44 666.12,365.04 689.64,300.44 663.65,364.76 689.64,300.44 661.19,364.33 689.64,300.44 
		659.08,363.08 689.64,300.44 656.73,362.32 689.64,300.44 654.16,361.88 689.64,300.44 651.9,360.82 689.64,300.44 649.75,359.57 
		689.64,300.44 648.24,357.41 689.64,300.44 646.71,355.38 689.64,300.44 644.87,353.79 689.64,300.44 643.35,351.85 689.64,300.44 
		640.6,351.22 689.64,300.44 638.07,350.24 689.64,300.44 635.9,348.82 689.64,300.44 634.17,346.98 689.64,300.44 632.23,345.29 
		689.64,300.44 630.27,343.57 689.64,300.44 628.3,341.81 689.64,300.44 626.66,339.79 689.64,300.44 624.87,337.83 689.64,300.44 
		622.67,336.04 689.64,300.44 620.77,334.03 689.64,300.44 619.09,331.85 689.64,300.44 617.31,329.66 689.64,300.44 615.29,327.49 
		689.64,300.44 613.35,325.22 689.64,300.44 612.06,322.68 689.64,300.44 610.32,320.21 689.64,300.44 608.22,317.74 689.64,300.44 
		606.81,315.04 689.64,300.44 605.19,312.31 689.64,300.44 603.51,309.49 689.64,300.44 601.24,306.62 689.64,300.44 600.6,303.55 
		689.64,300.44 600.52,300.44 689.64,300.44 599.89,297.3 689.64,300.44 601.04,294.24 689.64,300.44 602.68,291.3 689.64,300.44 
		603.3,288.3 689.64,300.44 602.81,285.13 689.64,300.44 602.38,281.89 689.64,300.44 601.75,278.52 689.64,300.44 601.43,275.14 
		689.64,300.44 600.68,271.53 689.64,300.44 599.69,267.7 689.64,300.44 599.22,263.91 689.64,300.44 599.73,260.41 689.64,300.44 
		599.02,256.24 689.64,300.44 598.64,252.05 689.64,300.44 598.75,247.96 689.64,300.44 599.26,243.96 689.64,300.44 600.96,240.62 
		689.64,300.44 602.71,237.28 689.64,300.44 604.91,234.24 689.64,300.44 607.28,231.33 689.64,300.44 609.08,227.9 689.64,300.44 
		610.87,224.37 689.64,300.44 612.96,221.04 689.64,300.44 615.17,217.73 689.64,300.44 617.84,214.87 689.64,300.44 619.98,211.28 
		689.64,300.44 621.73,206.97 689.64,300.44 623.91,202.99 689.64,300.44 626.61,199.58 689.64,300.44 629.7,196.62 689.64,300.44 
		632.81,193.56 689.64,300.44 635.9,190.27 689.64,300.44 639.56,187.97 689.64,300.44 643.15,185.39 689.64,300.44 646.53,182.01 
		689.64,300.44 650.07,178.66 689.64,300.44 653.88,175.76 689.64,300.44 657.99,173.5 689.64,300.44 662.22,171.45 689.64,300.44 
		666.73,170.56 689.64,300.44 671.17,169.04 689.64,300.44 675.64,167.3 689.64,300.44 680.18,165.22 689.64,300.44 684.87,163.95 
		689.64,300.44 689.63,164.05 689.64,300.44 694.45,162.66 689.64,300.44 699.14,164.48 689.64,300.44 703.76,166.08 689.64,300.44 
		708.25,167.98 689.64,300.44 712.67,169.77 689.64,300.44 717,171.7 689.64,300.44 721.21,173.8 689.64,300.44 725.2,176.42 
		689.64,300.44 729.33,178.26 689.64,300.44 733.33,180.37 689.64,300.44 736.96,183.3 689.64,300.44 740.66,185.84 689.64,300.44 
		744.75,187.44 689.64,300.44 748.32,190.07 689.64,300.44 751.06,194.04 689.64,300.44 754.22,197.07 689.64,300.44 757.03,200.52 
		689.64,300.44 759.57,204.18 689.64,300.44 762.09,207.7 689.64,300.44 764.34,211.41 689.64,300.44 766.77,214.77 689.64,300.44 
		768.74,218.52 689.64,300.44 770.96,221.9 689.64,300.44 773.18,225.21 689.64,300.44 775.22,228.62 689.64,300.44 776.69,232.42 
		689.64,300.44 778.18,236.1 689.64,300.44 779.47,239.84 689.64,300.44 780.27,243.8 689.64,300.44 780.82,247.79 689.64,300.44 
		781.43,251.63 689.64,300.44 782.1,255.33 689.64,300.44 781.96,259.33 689.64,300.44 782.07,263.09 689.64,300.44 781.82,266.88 
		689.64,300.44 781.32,270.64 689.64,300.44 780.45,274.39 689.64,300.44 779.43,278.05 689.64,300.44 778.52,281.54 689.64,300.44 
		777.09,285.01 689.64,300.44 776.06,288.29 689.64,300.44 776.18,291.34 689.64,300.44 776.57,294.35 689.64,300.44 776.85,297.39 
		689.64,300.44 776.57,300.43 689.64,300.44 775.55,303.43 689.64,300.44 775.72,306.45 689.64,300.44 775.97,309.51 689.64,300.44 
		775.47,312.5 689.64,300.44 774.01,315.31 689.64,300.44 773.27,318.21 689.64,300.44 771.77,320.91 689.64,300.44 768.97,323.18 
		689.64,300.44 767.1,325.6 689.64,300.44 765.6,328.08 689.64,300.44 764.6,330.72 689.64,300.44 761.75,332.54 689.64,300.44 
		759.32,334.42 689.64,300.44 757.89,336.72 689.64,300.44 756.69,339.14 689.64,300.44 754.65,341.06 689.64,300.44 753.09,343.23 
		689.64,300.44 750.6,344.72 689.64,300.44 747.52,345.66 689.64,300.44 744.9,346.8 689.64,300.44 742.12,347.69 689.64,300.44 
		739.98,349.05 689.64,300.44 738.12,350.64 689.64,300.44 735.65,351.53 689.64,300.44 733.59,352.81 689.64,300.44 731.49,354.01 
		689.64,300.44 729.12,354.78 689.64,300.44 726.72,355.41 689.64,300.44 724.42,356.1 689.64,300.44 722.24,356.9 689.64,300.44 
		720.05,357.62 689.64,300.44 718.17,358.93 689.64,300.44 716.3,360.32 689.64,300.44 714.7,362.47 689.64,300.44 712.97,364.54 
		689.64,300.44 710.97,366.07 689.64,300.44 708.75,367.07 689.64,300.44 706.4,367.66 689.64,300.44 703.85,367.28 689.64,300.44 
		701.28,366.46 689.64,300.44 698.95,366.68 689.64,300.44 696.68,367.46 689.64,300.44 694.4,368.56 689.64,300.44 692.03,369.01 
		689.64,300.44 689.64,369.46 689.64,300.44 687.2,370.37 689.64,300.44 684.81,369.57 689.64,300.44 682.32,370.11 689.64,300.44 
		679.85,370.06 689.64,300.44 677.56,368.93 689.64,300.44 675.16,368.55 689.64,300.44 672.63,368.66 689.64,300.44 670.26,368.02 
		689.64,300.44 668.19,366.44 689.64,300.44 666.2,364.83 689.64,300.44 664.03,363.83 689.64,300.44 661.75,363.07 689.64,300.44 
		660.02,361.17 689.64,300.44 658.03,359.89 689.64,300.44 656.22,358.32 689.64,300.44 654.29,357.01 689.64,300.44 652.37,355.68 
		689.64,300.44 650.02,354.97 689.64,300.44 648,353.73 689.64,300.44 645.8,352.69 689.64,300.44 643.6,351.57 689.64,300.44 
		642.16,349.6 689.64,300.44 640.47,347.92 689.64,300.44 638.8,346.21 689.64,300.44 636.63,344.91 689.64,300.44 633.82,344.05 
		689.64,300.44 631.69,342.54 689.64,300.44 629.07,341.29 689.64,300.44 626.97,339.6 689.64,300.44 625,337.76 689.64,300.44 
		622.43,336.17 689.64,300.44 620.31,334.25 689.64,300.44 617.93,332.36 689.64,300.44 615.86,330.25 689.64,300.44 614.2,327.89 
		689.64,300.44 612.27,325.58 689.64,300.44 609.74,323.35 689.64,300.44 608.24,320.73 689.64,300.44 606.9,318.03 689.64,300.44 
		606.34,315.13 689.64,300.44 605.52,312.26 689.64,300.44 604.47,309.39 689.64,300.44 603.35,306.47 689.64,300.44 602.93,303.47 
		689.64,300.44 602.44,300.44 689.64,300.44 601.95,297.38 689.64,300.44 601.33,294.26 689.64,300.44 600.97,291.12 689.64,300.44 
		599.41,287.76 689.64,300.44 597.59,284.21 689.64,300.44 596.96,280.74 689.64,300.44 596.39,277.19 689.64,300.44 595.08,273.32 
		689.64,300.44 594.99,269.69 689.64,300.44 596.2,266.43 689.64,300.44 596.67,262.88 689.64,300.44 595.82,258.67 689.64,300.44 
		596.31,254.92 689.64,300.44 597.6,251.5 689.64,300.44 599.21,248.23 689.64,300.44 600.1,244.49 689.64,300.44 601.43,240.94 
		689.64,300.44 602.98,237.48 689.64,300.44 603.85,233.41 689.64,300.44 605.06,229.47 689.64,300.44 606.6,225.68 689.64,300.44 
		607.71,221.32 689.64,300.44 609.52,217.48 689.64,300.44 611.84,214.03 689.64,300.44 614.83,211.29 689.64,300.44 617.63,208.28 
		689.64,300.44 620.14,204.79 689.64,300.44 622.88,201.46 689.64,300.44 625.96,198.53 689.64,300.44 629.06,195.52 689.64,300.44 
		632.24,192.49 689.64,300.44 635.66,189.76 689.64,300.44 639.06,186.85 689.64,300.44 642.95,184.88 689.64,300.44 646.89,183 
		689.64,300.44 650.51,180.02 689.64,300.44 654.18,176.79 689.64,300.44 657.88,173.09 689.64,300.44 661.91,170.01 689.64,300.44 
		666.28,167.99 689.64,300.44 670.82,166.54 689.64,300.44 675.31,164.19 689.64,300.44 680,162.66 689.64,300.44 684.78,161.42 
		689.64,300.44 689.63,159.43 689.64,300.44 694.63,157.3 689.64,300.44 699.47,159.77 689.64,300.44 704.16,162.26 689.64,300.44 
		708.89,163.44 689.64,300.44 713.48,165.19 689.64,300.44 717.79,167.99 689.64,300.44 721.8,171.42 689.64,300.44 725.59,175.05 
		689.64,300.44 729.25,178.5 689.64,300.44 733.03,181.2 689.64,300.44 736.96,183.31 689.64,300.44 740.07,187.14 689.64,300.44 
		743.58,189.83 689.64,300.44 747.32,191.93 689.64,300.44 751.08,194 689.64,300.44 754.43,196.74 689.64,300.44 757.29,200.14 
		689.64,300.44 759.98,203.62 689.64,300.44 762.1,207.68 689.64,300.44 764.08,211.71 689.64,300.44 766.28,215.31 689.64,300.44 
		768.3,218.97 689.64,300.44 770.59,222.25 689.64,300.44 772.93,225.44 689.64,300.44 775.07,228.74 689.64,300.44 777.12,232.08 
		689.64,300.44 779.65,235.03 689.64,300.44 781.42,238.52 689.64,300.44 782.78,242.23 689.64,300.44 782.94,246.56 689.64,300.44 
		782.97,250.81 689.64,300.44 783.94,254.44 689.64,300.44 784.55,258.17 689.64,300.44 784.35,262.16 689.64,300.44 784.69,265.84 
		689.64,300.44 784.72,269.54 689.64,300.44 784.07,273.36 689.64,300.44 783.31,277.08 689.64,300.44 782.81,280.63 689.64,300.44 
		781.95,284.16 689.64,300.44 780.49,287.66 689.64,300.44 779.55,290.98 689.64,300.44 778.47,294.22 689.64,300.44 777.77,297.36 
		689.64,300.44 776.78,300.43 689.64,300.44 775.69,303.44 689.64,300.44 774.39,306.36 689.64,300.44 772.21,309.11 689.64,300.44 
		769.89,311.71 689.64,300.44 768.21,314.29 689.64,300.44 767.14,316.91 689.64,300.44 766.12,319.5 689.64,300.44 765.86,322.29 
		689.64,300.44 765.72,325.15 689.64,300.44 765.12,327.91 689.64,300.44 764.08,330.51 689.64,300.44 763.28,333.22 689.64,300.44 
		762.05,335.75 689.64,300.44 760.43,338.07 689.64,300.44 758.6,340.25 689.64,300.44 756.95,342.5 689.64,300.44 755.08,344.57 
		689.64,300.44 753.02,346.49 689.64,300.44 750.97,348.35 689.64,300.44 747.72,349.17 689.64,300.44 744.37,349.72 689.64,300.44 
		742.43,351.41 689.64,300.44 740.42,353.02 689.64,300.44 738.16,354.32 689.64,300.44 735.32,354.88 689.64,300.44 732.66,355.49 
		689.64,300.44 730.3,356.39 689.64,300.44 728.71,358.35 689.64,300.44 727.07,360.33 689.64,300.44 725.6,362.72 689.64,300.44 
		724.02,365.09 689.64,300.44 721.3,365.34 689.64,300.44 718.49,365.23 689.64,300.44 716.07,365.84 689.64,300.44 713.7,366.53 
		689.64,300.44 711.6,368.02 689.64,300.44 709.2,368.65 689.64,300.44 706.83,369.39 689.64,300.44 704.47,370.19 689.64,300.44 
		702.01,370.58 689.64,300.44 699.42,370.04 689.64,300.44 696.95,370.01 689.64,300.44 694.47,369.51 689.64,300.44 692.04,369.16 
		689.64,300.44 689.64,367.66 689.64,300.44 687.3,367.52 689.64,300.44 684.98,367.06 689.64,300.44 682.73,366.22 689.64,300.44 
		680.46,365.73 689.64,300.44 678.21,365.24 689.64,300.44 676.02,364.49 689.64,300.44 673.71,364.34 689.64,300.44 671.42,363.98 
		689.64,300.44 669.4,362.73 689.64,300.44 667.3,361.81 689.64,300.44 665.17,361 689.64,300.44 663.03,360.2 689.64,300.44 
		661.24,358.67 689.64,300.44 658.64,358.74 689.64,300.44 655.58,359.43 689.64,300.44 653.33,358.54 689.64,300.44 650.78,358.05 
		689.64,300.44 648.12,357.58 689.64,300.44 646.08,356.19 689.64,300.44 644.56,354.16 689.64,300.44 642.56,352.73 689.64,300.44 
		640.65,351.16 689.64,300.44 638.59,349.74 689.64,300.44 636.68,348.12 689.64,300.44 635.73,345.67 689.64,300.44 633.57,344.24 
		689.64,300.44 631.37,342.77 689.64,300.44 628.59,341.61 689.64,300.44 625.81,340.32 689.64,300.44 623.63,338.55 689.64,300.44 
		620.86,337.01 689.64,300.44 619.11,334.84 689.64,300.44 617.91,332.37 689.64,300.44 616.55,329.97 689.64,300.44 614.77,327.69 
		689.64,300.44 613.78,325.08 689.64,300.44 612.64,322.52 689.64,300.44 612.16,319.76 689.64,300.44 611.4,317.07 689.64,300.44 
		608.77,314.7 689.64,300.44 606.31,312.15 689.64,300.44 605.21,309.31 689.64,300.44 604.71,306.38 689.64,300.44 604.6,303.41 
		689.64,300.44 604.02,300.44 689.64,300.44 602.22,297.39 689.64,300.44 602.31,294.33 689.64,300.44 603.05,291.34 689.64,300.44 
		602.56,288.2 689.64,300.44 602.08,285 689.64,300.44 601.33,281.67 689.64,300.44 600.21,278.14 689.64,300.44 599.77,274.67 
		689.64,300.44 599.67,271.21 689.64,300.44 599.6,267.67 689.64,300.44 599.34,263.95 689.64,300.44 598.68,259.94 689.64,300.44 
		598.25,255.87 689.64,300.44 598.74,252.11 689.64,300.44 599.62,248.47 689.64,300.44 600.45,244.71 689.64,300.44 601.7,241.12 
		689.64,300.44 603.9,238.15 689.64,300.44 605.58,234.76 689.64,300.44 607.38,231.42 689.64,300.44 609.41,228.2 689.64,300.44 
		610.97,224.47 689.64,300.44 612.35,220.41 689.64,300.44 613.93,216.36 689.64,300.44 616.03,212.72 689.64,300.44 618.58,209.49 
		689.64,300.44 620.77,205.65 689.64,300.44 624.06,203.21 689.64,300.44 627.17,200.48 689.64,300.44 629.92,197 689.64,300.44 
		632.74,193.43 689.64,300.44 636.38,191.26 689.64,300.44 640.04,189.06 689.64,300.44 643.63,186.57 689.64,300.44 646.98,183.24 
		689.64,300.44 650.43,179.8 689.64,300.44 654.52,177.97 689.64,300.44 658.81,176.81 689.64,300.44 662.99,175.1 689.64,300.44 
		667.1,172.66 689.64,300.44 671.24,169.58 689.64,300.44 675.67,167.63 689.64,300.44 680.18,165.23 689.64,300.44 684.82,162.72 
		689.64,300.44 689.63,160.33 689.64,300.44 694.56,159.37 689.64,300.44 699.36,161.25 689.64,300.44 704.12,162.6 689.64,300.44 
		708.87,163.57 689.64,300.44 713.4,165.67 689.64,300.44 717.55,169.09 689.64,300.44 721.78,171.49 689.64,300.44 725.81,174.27 
		689.64,300.44 729.73,177.04 689.64,300.44 733.46,180.03 689.64,300.44 737.11,182.91 689.64,300.44 740.86,185.38 689.64,300.44 
		744.5,187.94 689.64,300.44 748.34,190.02 689.64,300.44 752.12,192.21 689.64,300.44 755.99,194.24 689.64,300.44 759.11,197.43 
		689.64,300.44 761.7,201.25 689.64,300.44 763.96,205.3 689.64,300.44 765.85,209.6 689.64,300.44 767.57,213.87 689.64,300.44 
		770.37,216.83 689.64,300.44 772.73,220.19 689.64,300.44 774.32,224.18 689.64,300.44 775.52,228.36 689.64,300.44 776.82,232.31 
		689.64,300.44 777.74,236.42 689.64,300.44 778.28,240.64 689.64,300.44 778.47,244.92 689.64,300.44 778.23,249.28 689.64,300.44 
		778.47,253.2 689.64,300.44 779.73,256.49 689.64,300.44 780.91,259.79 689.64,300.44 782.56,262.89 689.64,300.44 784.08,266.06 
		689.64,300.44 784.53,269.6 689.64,300.44 785.38,272.98 689.64,300.44 785.51,276.53 689.64,300.44 785.34,280.09 689.64,300.44 
		784.51,283.7 689.64,300.44 784.3,287.13 689.64,300.44 783.66,290.55 689.64,300.44 783.3,293.88 689.64,300.44 782.63,297.18 
		689.64,300.44 781.35,300.43 689.64,300.44 780.12,303.59 689.64,300.44 779.22,306.7 689.64,300.44 778.01,309.72 689.64,300.44 
		776.23,312.6 689.64,300.44 773.39,315.2 689.64,300.44 771.65,317.86 689.64,300.44 770.67,320.64 689.64,300.44 768.91,323.16 
		689.64,300.44 767.29,325.66 689.64,300.44 766.25,328.32 689.64,300.44 764.63,330.73 689.64,300.44 761.98,332.64 689.64,300.44 
		759,334.26 689.64,300.44 756.73,336.11 689.64,300.44 754.89,338.1 689.64,300.44 752.85,339.93 689.64,300.44 750.83,341.7 
		689.64,300.44 750.19,344.43 689.64,300.44 748.96,346.78 689.64,300.44 746.99,348.55 689.64,300.44 745.27,350.52 689.64,300.44 
		742.96,351.93 689.64,300.44 740.68,353.28 689.64,300.44 738.79,355.02 689.64,300.44 736.97,356.84 689.64,300.44 734.8,358.23 
		689.64,300.44 732.37,359.24 689.64,300.44 729.7,359.82 689.64,300.44 727.12,360.41 689.64,300.44 725.05,361.77 689.64,300.44 
		722.5,362.23 689.64,300.44 720.13,362.95 689.64,300.44 717.36,362.7 689.64,300.44 714.9,362.95 689.64,300.44 712.59,363.5 
		689.64,300.44 710.06,363.28 689.64,300.44 708.03,364.57 689.64,300.44 705.92,365.72 689.64,300.44 703.78,366.94 689.64,300.44 
		701.52,367.83 689.64,300.44 699.11,367.84 689.64,300.44 696.79,368.48 689.64,300.44 694.43,368.85 689.64,300.44 692.04,369.17 
		689.64,300.44 689.64,370.47 689.64,300.44 687.19,370.5 689.64,300.44 684.76,370.26 689.64,300.44 682.4,369.36 689.64,300.44 
		680.16,367.89 689.64,300.44 678.09,365.93 689.64,300.44 676.02,364.51 689.64,300.44 673.63,364.65 689.64,300.44 671.27,364.5 
		689.64,300.44 669.07,363.74 689.64,300.44 667.07,362.44 689.64,300.44 665.23,360.87 689.64,300.44 662.88,360.54 689.64,300.44 
		660.13,360.94 689.64,300.44 657.65,360.6 689.64,300.44 655.08,360.31 689.64,300.44 652.58,359.75 689.64,300.44 650.66,358.23 
		689.64,300.44 649.36,355.87 689.64,300.44 648.02,353.71 689.64,300.44 646.37,352.01 689.64,300.44 644.2,350.91 689.64,300.44 
		642.04,349.73 689.64,300.44 639.79,348.58 689.64,300.44 637.68,347.22 689.64,300.44 635.8,345.62 689.64,300.44 633.75,344.1 
		689.64,300.44 631.67,342.56 689.64,300.44 629.94,340.71 689.64,300.44 628.42,338.69 689.64,300.44 626.01,337.18 689.64,300.44 
		623.98,335.35 689.64,300.44 622.32,333.27 689.64,300.44 621.17,330.92 689.64,300.44 619.27,328.87 689.64,300.44 617.19,326.81 
		689.64,300.44 615.19,324.63 689.64,300.44 611.67,322.8 689.64,300.44 609.33,320.46 689.64,300.44 606.78,318.05 689.64,300.44 
		603.5,315.63 689.64,300.44 600.92,312.91 689.64,300.44 600.27,309.83 689.64,300.44 600.54,306.67 689.64,300.44 600.9,303.54 
		689.64,300.44 601.93,300.44 689.64,300.44 602.89,297.41 689.64,300.44 602.52,294.35 689.64,300.44 602.94,291.33 689.64,300.44 
		603.79,288.38 689.64,300.44 604.68,285.46 689.64,300.44 605.01,282.45 689.64,300.44 604.12,279.12 689.64,300.44 602.13,275.35 
		689.64,300.44 600.58,271.51 689.64,300.44 599.97,267.81 689.64,300.44 600.41,264.39 689.64,300.44 599.92,260.5 689.64,300.44 
		601.53,257.47 689.64,300.44 602.98,254.37 689.64,300.44 603.22,250.55 689.64,300.44 604.22,247.07 689.64,300.44 604.95,243.32 
		689.64,300.44 606.08,239.74 689.64,300.44 607.5,236.27 689.64,300.44 608.58,232.43 689.64,300.44 609.35,228.15 689.64,300.44 
		609.94,223.48 689.64,300.44 610.55,218.55 689.64,300.44 611.41,213.57 689.64,300.44 613.18,209.33 689.64,300.44 615.78,205.91 
		689.64,300.44 618.55,202.61 689.64,300.44 620.79,198.38 689.64,300.44 623.42,194.47 689.64,300.44 626.67,191.38 689.64,300.44 
		629.84,187.98 689.64,300.44 633.73,185.83 689.64,300.44 637.49,183.33 689.64,300.44 641.14,180.44 689.64,300.44 645.19,178.33 
		689.64,300.44 649.16,175.88 689.64,300.44 653.19,173.36 689.64,300.44 657.4,171.2 689.64,300.44 661.87,169.83 689.64,300.44 
		666.45,169 689.64,300.44 671.08,168.49 689.64,300.44 675.57,166.68 689.64,300.44 680.14,164.69 689.64,300.44 684.85,163.51 
		689.64,300.44 689.63,162.68 689.64,300.44 694.47,161.69 689.64,300.44 699.27,162.58 689.64,300.44 704.03,163.45 689.64,300.44 
		708.63,165.2 689.64,300.44 713.27,166.37 689.64,300.44 717.73,168.23 689.64,300.44 721.99,170.65 689.64,300.44 726.13,173.12 
		689.64,300.44 730.29,175.27 689.64,300.44 734.2,177.97 689.64,300.44 738.01,180.69 689.64,300.44 741.29,184.4 689.64,300.44 
		744.27,188.4 689.64,300.44 747.3,191.97 689.64,300.44 750.26,195.41 689.64,300.44 752.83,199.29 689.64,300.44 755.16,203.27 
		689.64,300.44 757.39,207.17 689.64,300.44 759.58,210.9 689.64,300.44 762.13,214.03 689.64,300.44 764.97,216.75 689.64,300.44 
		766.83,220.49 689.64,300.44 769.21,223.58 689.64,300.44 771.14,227.04 689.64,300.44 772.74,230.69 689.64,300.44 774.71,233.96 
		689.64,300.44 775.87,237.77 689.64,300.44 776.58,241.78 689.64,300.44 778.06,245.17 689.64,300.44 779.86,248.33 689.64,300.44 
		780.9,251.9 689.64,300.44 780.57,256.07 689.64,300.44 780.56,259.95 689.64,300.44 780.65,263.66 689.64,300.44 779.76,267.62 
		689.64,300.44 778.65,271.51 689.64,300.44 778.79,274.86 689.64,300.44 779.11,278.12 689.64,300.44 779.17,281.4 689.64,300.44 
		778.61,284.74 689.64,300.44 778.61,287.92 689.64,300.44 777.83,291.16 689.64,300.44 777.63,294.28 689.64,300.44 777.17,297.37 
		689.64,300.44 776.73,300.43 689.64,300.44 775.17,303.42 689.64,300.44 773.55,306.3 689.64,300.44 771.71,309.06 689.64,300.44 
		770.15,311.74 689.64,300.44 770.02,314.6 689.64,300.44 769.02,317.3 689.64,300.44 768.38,320.06 689.64,300.44 766.55,322.48 
		689.64,300.44 764.87,324.87 689.64,300.44 762.66,327.01 689.64,300.44 759.81,328.78 689.64,300.44 758.04,330.88 689.64,300.44 
		755.59,332.6 689.64,300.44 753.9,334.59 689.64,300.44 752.84,336.92 689.64,300.44 751.74,339.24 689.64,300.44 750.18,341.26 
		689.64,300.44 748.33,343.07 689.64,300.44 746,344.46 689.64,300.44 743.04,345.24 689.64,300.44 740.73,346.43 689.64,300.44 
		738.99,348.09 689.64,300.44 736.5,348.96 689.64,300.44 733.8,349.47 689.64,300.44 731.65,350.5 689.64,300.44 729.8,351.83 
		689.64,300.44 728.42,353.8 689.64,300.44 727.24,356.17 689.64,300.44 725.61,357.99 689.64,300.44 723.14,358.46 689.64,300.44 
		720.76,358.96 689.64,300.44 718.7,360.01 689.64,300.44 716.76,361.34 689.64,300.44 714.6,362.19 689.64,300.44 712.42,363.02 
		689.64,300.44 710.11,363.42 689.64,300.44 707.96,364.33 689.64,300.44 705.71,364.88 689.64,300.44 703.47,365.5 689.64,300.44 
		701.18,365.88 689.64,300.44 698.91,366.38 689.64,300.44 696.48,365.5 689.64,300.44 694.1,364.16 689.64,300.44 691.84,363.42 
		689.64,300.44 689.64,363.21 689.64,300.44 687.47,362.53 689.64,300.44 685.25,363.2 689.64,300.44 683.04,363.31 689.64,300.44 
		680.86,362.95 689.64,300.44 678.7,362.52 689.64,300.44 676.52,362.17 689.64,300.44 674.19,362.4 689.64,300.44 671.72,362.95 
		689.64,300.44 669.42,362.68 689.64,300.44 667.25,361.96 689.64,300.44 664.94,361.58 689.64,300.44 662.86,360.6 689.64,300.44 
		660.97,359.23 689.64,300.44 658.82,358.41 689.64,300.44 656.11,358.52 689.64,300.44 653.24,358.69 689.64,300.44 650.79,358.04 
		689.64,300.44 648.31,357.33 689.64,300.44 646.34,355.87 689.64,300.44 644.93,353.73 689.64,300.44 643.88,351.27 689.64,300.44 
		641.85,349.93 689.64,300.44 639.15,349.2 689.64,300.44 636.85,347.97 689.64,300.44 635.21,346.12 689.64,300.44 633.26,344.49 
		689.64,300.44 630.74,343.24 689.64,300.44 628.91,341.4 689.64,300.44 626.82,339.7 689.64,300.44 624.6,337.99 689.64,300.44 
		622.34,336.23 689.64,300.44 621.18,333.83 689.64,300.44 620.19,331.37 689.64,300.44 618.69,329.11 689.64,300.44 617.4,326.73 
		689.64,300.44 616.98,324.05 689.64,300.44 616.08,321.54 689.64,300.44 613.56,319.41 689.64,300.44 610.94,317.17 689.64,300.44 
		608.69,314.72 689.64,300.44 607.03,312.05 689.64,300.44 605.8,309.26 689.64,300.44 605.91,306.3 689.64,300.44 605.57,303.38 
		689.64,300.44 604.57,300.44 689.64,300.44 602.71,297.41 689.64,300.44 602.75,294.37 689.64,300.44 602.22,291.26 689.64,300.44 
		601.05,287.99 689.64,300.44 599.56,284.56 689.64,300.44 598.56,281.09 689.64,300.44 598.49,277.72 689.64,300.44 598.54,274.32 
		689.64,300.44 598.56,270.85 689.64,300.44 599.5,267.64 689.64,300.44 600.38,264.38 689.64,300.44 599.66,260.39 689.64,300.44 
		599.61,256.54 689.64,300.44 599.86,252.71 689.64,300.44 600.52,249 689.64,300.44 601.35,245.28 689.64,300.44 602.08,241.39 
		689.64,300.44 603.64,237.97 689.64,300.44 605.64,234.82 689.64,300.44 606.77,230.92 689.64,300.44 608.42,227.32 689.64,300.44 
		610.57,224.1 689.64,300.44 612.9,220.99 689.64,300.44 615.74,218.38 689.64,300.44 619.37,216.71 689.64,300.44 622.04,213.93 
		689.64,300.44 623.71,209.72 689.64,300.44 625.7,205.67 689.64,300.44 628.07,201.94 689.64,300.44 630.77,198.51 689.64,300.44 
		633.74,195.33 689.64,300.44 636.41,191.34 689.64,300.44 639.4,187.63 689.64,300.44 642.58,184.01 689.64,300.44 645.88,180.25 
		689.64,300.44 649.64,177.38 689.64,300.44 653.59,174.78 689.64,300.44 657.85,173.01 689.64,300.44 662.22,171.54 689.64,300.44 
		666.65,170.16 689.64,300.44 671.11,168.73 689.64,300.44 675.68,167.76 689.64,300.44 680.28,166.89 689.64,300.44 684.94,166.32 
		689.64,300.44 689.62,165.36 689.64,300.44 694.39,163.91 689.64,300.44 699.08,165.23 689.64,300.44 703.8,165.51 689.64,300.44 
		708.48,166.25 689.64,300.44 713.22,166.62 689.64,300.44 717.69,168.39 689.64,300.44 721.59,172.24 689.64,300.44 725.37,175.75 
		689.64,300.44 728.98,179.32 689.64,300.44 732.43,182.82 689.64,300.44 735.89,185.92 689.64,300.44 739.7,187.96 689.64,300.44 
		743.58,189.81 689.64,300.44 747.03,192.47 689.64,300.44 749.94,195.97 689.64,300.44 752.39,199.99 689.64,300.44 754.75,203.88 
		689.64,300.44 757.65,206.8 689.64,300.44 760.55,209.65 689.64,300.44 763.63,212.24 689.64,300.44 766.19,215.4 689.64,300.44 
		768.14,219.12 689.64,300.44 769.81,223 689.64,300.44 771.19,226.99 689.64,300.44 772.4,230.98 689.64,300.44 774.19,234.36 
		689.64,300.44 775.86,237.78 689.64,300.44 777,241.49 689.64,300.44 778.01,245.2 689.64,300.44 779.24,248.69 689.64,300.44 
		780.32,252.21 689.64,300.44 780.75,255.98 689.64,300.44 781.75,259.41 689.64,300.44 782.69,262.83 689.64,300.44 782.99,266.45 
		689.64,300.44 782.85,270.14 689.64,300.44 784.04,273.35 689.64,300.44 785.79,276.45 689.64,300.44 787.28,279.67 689.64,300.44 
		786.94,283.27 689.64,300.44 786.21,286.85 689.64,300.44 786.06,290.29 689.64,300.44 785.68,293.71 689.64,300.44 784.35,297.12 
		689.64,300.44 782.94,300.42 689.64,300.44 781.89,303.65 689.64,300.44 780.12,306.75 689.64,300.44 777.84,309.7 689.64,300.44 
		775.96,312.56 689.64,300.44 774.62,315.41 689.64,300.44 773.38,318.22 689.64,300.44 771.68,320.88 689.64,300.44 768.58,323.06 
		689.64,300.44 766.16,325.29 689.64,300.44 765.14,327.91 689.64,300.44 763.33,330.2 689.64,300.44 761.16,332.27 689.64,300.44 
		759.15,334.33 689.64,300.44 756.86,336.17 689.64,300.44 754.13,337.66 689.64,300.44 751.81,339.27 689.64,300.44 750.76,341.65 
		689.64,300.44 749.13,343.65 689.64,300.44 747.33,345.5 689.64,300.44 745.57,347.36 689.64,300.44 743.65,349.06 689.64,300.44 
		741.04,350.07 689.64,300.44 738.13,350.64 689.64,300.44 735.65,351.52 689.64,300.44 733.77,353.01 689.64,300.44 732.02,354.67 
		689.64,300.44 729.62,355.45 689.64,300.44 727.58,356.67 689.64,300.44 725.27,357.45 689.64,300.44 722.67,357.64 689.64,300.44 
		720.46,358.38 689.64,300.44 718.71,360.02 689.64,300.44 716.62,361.02 689.64,300.44 714.47,361.86 689.64,300.44 712.31,362.71 
		689.64,300.44 710.06,363.26 689.64,300.44 707.73,363.49 689.64,300.44 705.56,364.28 689.64,300.44 703.42,365.21 689.64,300.44 
		701.11,365.46 689.64,300.44 698.84,365.85 689.64,300.44 696.64,366.96 689.64,300.44 694.29,366.81 689.64,300.44 691.97,367.02 
		689.64,300.44 689.65,367.12 689.64,300.44 687.33,366.87 689.64,300.44 685.01,366.8 689.64,300.44 682.87,364.9 689.64,300.44 
		680.78,363.51 689.64,300.44 678.66,362.76 689.64,300.44 676.42,362.64 689.64,300.44 674.24,362.22 689.64,300.44 672.11,361.59 
		689.64,300.44 669.71,361.8 689.64,300.44 667.13,362.3 689.64,300.44 664.64,362.33 689.64,300.44 662.7,360.96 689.64,300.44 
		660.61,359.97 689.64,300.44 658.67,358.69 689.64,300.44 656.55,357.77 689.64,300.44 654.44,356.77 689.64,300.44 652.05,356.18 
		689.64,300.44 649.48,355.72 689.64,300.44 647.27,354.68 689.64,300.44 644.95,353.7 689.64,300.44 643.04,352.21 689.64,300.44 
		640.83,350.99 689.64,300.44 638.93,349.42 689.64,300.44 637.05,347.8 689.64,300.44 635.75,345.67 689.64,300.44 634.6,343.45 
		689.64,300.44 632.92,341.66 689.64,300.44 630.43,340.38 689.64,300.44 628.07,338.92 689.64,300.44 626.18,337.08 689.64,300.44 
		624.99,334.82 689.64,300.44 623.33,332.79 689.64,300.44 621.86,330.62 689.64,300.44 620.71,328.3 689.64,300.44 619.75,325.88 
		689.64,300.44 617.77,323.8 689.64,300.44 615.55,321.69 689.64,300.44 612.53,319.67 689.64,300.44 610.4,317.29 689.64,300.44 
		609.24,314.62 689.64,300.44 609.06,311.77 689.64,300.44 607.01,309.13 689.64,300.44 604.76,306.38 689.64,300.44 603.28,303.46 
		689.64,300.44 602.96,300.45 689.64,300.44 603.15,297.43 689.64,300.44 603.45,294.42 689.64,300.44 603.45,291.39 689.64,300.44 
		604.08,288.42 689.64,300.44 604.96,285.52 689.64,300.44 604.81,282.42 689.64,300.44 604.22,279.15 689.64,300.44 603.97,275.88 
		689.64,300.44 603.34,272.41 689.64,300.44 603.46,269.08 689.64,300.44 603.94,265.82 689.64,300.44 604.06,262.35 689.64,300.44 
		603.22,258.3 689.64,300.44 603.86,254.84 689.64,300.44 605.63,251.95 689.64,300.44 606.73,248.65 689.64,300.44 606.53,244.39 
		689.64,300.44 606.94,240.37 689.64,300.44 607.61,236.37 689.64,300.44 608.23,232.14 689.64,300.44 608.6,227.49 689.64,300.44 
		609.88,223.44 689.64,300.44 611.82,219.87 689.64,300.44 613.79,216.23 689.64,300.44 615.92,212.6 689.64,300.44 618.89,209.91 
		689.64,300.44 621.56,206.77 689.64,300.44 624.27,203.55 689.64,300.44 626.88,200.03 689.64,300.44 629.06,195.55 689.64,300.44 
		632.11,192.28 689.64,300.44 635.07,188.6 689.64,300.44 638.39,185.38 689.64,300.44 641.94,182.44 689.64,300.44 645.77,179.96 
		689.64,300.44 649.72,177.63 689.64,300.44 654,176.22 689.64,300.44 658.33,174.95 689.64,300.44 662.58,173.22 689.64,300.44 
		666.82,171.16 689.64,300.44 671.25,169.71 689.64,300.44 675.74,168.43 689.64,300.44 680.26,166.63 689.64,300.44 684.88,164.78 
		689.64,300.44 689.62,163.63 689.64,300.44 694.42,162.97 689.64,300.44 699.17,163.86 689.64,300.44 703.84,165.14 689.64,300.44 
		708.41,166.71 689.64,300.44 712.99,167.86 689.64,300.44 717.51,169.21 689.64,300.44 721.74,171.59 689.64,300.44 725.8,174.24 
		689.64,300.44 729.99,176.2 689.64,300.44 734.31,177.64 689.64,300.44 738.22,180.14 689.64,300.44 741.8,183.24 689.64,300.44 
		745.21,186.45 689.64,300.44 748.47,189.75 689.64,300.44 751.76,192.8 689.64,300.44 754.29,196.94 689.64,300.44 756.66,201.04 
		689.64,300.44 758.13,206.13 689.64,300.44 759.84,210.55 689.64,300.44 761.63,214.61 689.64,300.44 762.93,219.01 689.64,300.44 
		765.31,222.05 689.64,300.44 767.19,225.52 689.64,300.44 768.15,229.72 689.64,300.44 768.96,233.86 689.64,300.44 770.17,237.5 
		689.64,300.44 772.29,240.37 689.64,300.44 773.59,243.79 689.64,300.44 775.33,246.87 689.64,300.44 776.88,250.05 689.64,300.44 
		776.91,254.01 689.64,300.44 777.7,257.47 689.64,300.44 779.19,260.55 689.64,300.44 780.8,263.59 689.64,300.44 782.35,266.67 
		689.64,300.44 784.15,269.71 689.64,300.44 785.15,273.03 689.64,300.44 785.59,276.5 689.64,300.44 784.87,280.18 689.64,300.44 
		783.43,283.88 689.64,300.44 781.84,287.46 689.64,300.44 782.11,290.7 689.64,300.44 782.79,293.91 689.64,300.44 782.97,297.16 
		689.64,300.44 781.8,300.42 689.64,300.44 779.25,303.55 689.64,300.44 777.14,306.54 689.64,300.44 775.47,309.44 689.64,300.44 
		773.33,312.19 689.64,300.44 771.78,314.91 689.64,300.44 770.74,317.66 689.64,300.44 768.86,320.18 689.64,300.44 767.12,322.64 
		689.64,300.44 765.03,324.92 689.64,300.44 762.55,326.96 689.64,300.44 760.21,328.94 689.64,300.44 758.77,331.2 689.64,300.44 
		757.31,333.43 689.64,300.44 755.7,335.55 689.64,300.44 753.76,337.45 689.64,300.44 751.79,339.26 689.64,300.44 749.5,340.8 
		689.64,300.44 748.99,343.54 689.64,300.44 748.09,346.09 689.64,300.44 746.84,348.42 689.64,300.44 745.06,350.32 689.64,300.44 
		742.26,351.23 689.64,300.44 739.57,352.13 689.64,300.44 736.67,352.65 689.64,300.44 733.74,352.98 689.64,300.44 731.36,353.81 
		689.64,300.44 728.96,354.54 689.64,300.44 727.22,356.13 689.64,300.44 725.4,357.64 689.64,300.44 723.54,359.13 689.64,300.44 
		721.6,360.52 689.64,300.44 719.64,361.91 689.64,300.44 717.29,362.51 689.64,300.44 714.88,362.89 689.64,300.44 712.04,361.95 
		689.64,300.44 709.53,361.62 689.64,300.44 707.36,362.21 689.64,300.44 705.59,364.38 689.64,300.44 703.5,365.62 689.64,300.44 
		701.18,365.83 689.64,300.44 698.94,366.55 689.64,300.44 696.7,367.52 689.64,300.44 694.4,368.37 689.64,300.44 692.01,368.19 
		689.64,300.44 689.65,366.92 689.64,300.44 687.32,367.03 689.64,300.44 685.03,366.46 689.64,300.44 682.75,366.11 689.64,300.44 
		680.43,366.05 689.64,300.44 678.02,366.41 689.64,300.44 675.71,366.03 689.64,300.44 673.34,365.87 689.64,300.44 670.94,365.68 
		689.64,300.44 668.72,364.86 689.64,300.44 666.72,363.42 689.64,300.44 664.47,362.77 689.64,300.44 662.2,362.08 689.64,300.44 
		659.55,362.16 689.64,300.44 657.07,361.71 689.64,300.44 654.73,360.92 689.64,300.44 652.66,359.64 689.64,300.44 650.43,358.58 
		689.64,300.44 648.86,356.58 689.64,300.44 647.74,354.08 689.64,300.44 646.71,351.62 689.64,300.44 644.73,350.33 689.64,300.44 
		643.2,348.54 689.64,300.44 640.76,347.65 689.64,300.44 638.44,346.55 689.64,300.44 636.26,345.24 689.64,300.44 633.56,344.26 
		689.64,300.44 631.58,342.63 689.64,300.44 630.31,340.47 689.64,300.44 628.79,338.47 689.64,300.44 627.29,336.45 689.64,300.44 
		625.52,334.54 689.64,300.44 623.82,332.55 689.64,300.44 621.08,330.97 689.64,300.44 618.5,329.19 689.64,300.44 616.03,327.24 
		689.64,300.44 612.74,325.44 689.64,300.44 611.05,322.99 689.64,300.44 608.69,320.63 689.64,300.44 606.99,318.02 689.64,300.44 
		605.3,315.32 689.64,300.44 603.97,312.49 689.64,300.44 603.11,309.55 689.64,300.44 602.37,306.55 689.64,300.44 601.37,303.53 
		689.64,300.44 600.13,300.45 689.64,300.44 598.64,297.27 689.64,300.44 597.48,294.01 689.64,300.44 595.39,290.55 689.64,300.44 
		593.44,286.93 689.64,300.44 592.48,283.32 689.64,300.44 592.8,279.87 689.64,300.44 592.77,276.3 689.64,300.44 592.99,272.74 
		689.64,300.44 593.04,269.07 689.64,300.44 594.14,265.7 689.64,300.44 595.39,262.38 689.64,300.44 596.7,259.08 689.64,300.44 
		597.11,255.33 689.64,300.44 598.4,251.94 689.64,300.44 600.41,248.94 689.64,300.44 601.14,245.16 689.64,300.44 602.71,241.82 
		689.64,300.44 603.45,237.84 689.64,300.44 604.3,233.78 689.64,300.44 604.73,229.21 689.64,300.44 606.25,225.38 689.64,300.44 
		607.79,221.43 689.64,300.44 609.87,217.87 689.64,300.44 611.63,213.83 689.64,300.44 613.96,210.28 689.64,300.44 616.51,206.88 
		689.64,300.44 619.14,203.44 689.64,300.44 622.03,200.24 689.64,300.44 625.13,197.24 689.64,300.44 628.58,194.72 689.64,300.44 
		631.92,191.92 689.64,300.44 635.22,188.91 689.64,300.44 638.88,186.49 689.64,300.44 642.58,184.03 689.64,300.44 646.19,181.14 
		689.64,300.44 650.04,178.63 689.64,300.44 654.13,176.7 689.64,300.44 658.31,174.88 689.64,300.44 662.58,173.27 689.64,300.44 
		666.87,171.47 689.64,300.44 671.16,169.1 689.64,300.44 675.56,166.72 689.64,300.44 680.02,163.29 689.64,300.44 684.72,160.21 
		689.64,300.44 689.61,157.64 689.64,300.44 694.64,156.49 689.64,300.44 699.51,158.88 689.64,300.44 704.16,162.06 689.64,300.44 
		708.62,165.22 689.64,300.44 713.08,167.34 689.64,300.44 717.25,170.4 689.64,300.44 721.41,172.9 689.64,300.44 725.13,176.59 
		689.64,300.44 729.01,179.19 689.64,300.44 732.86,181.62 689.64,300.44 736.38,184.68 689.64,300.44 739.79,187.73 689.64,300.44 
		743.01,190.95 689.64,300.44 746.66,193.14 689.64,300.44 750.71,194.61 689.64,300.44 754.62,196.41 689.64,300.44 757.65,199.56 
		689.64,300.44 760.01,203.54 689.64,300.44 762.16,207.58 689.64,300.44 764.45,211.25 689.64,300.44 766.98,214.51 689.64,300.44 
		769.14,218.08 689.64,300.44 770.79,222.04 689.64,300.44 772.76,225.57 689.64,300.44 775.15,228.66 689.64,300.44 777.3,231.92 
		689.64,300.44 778.42,235.91 689.64,300.44 779.55,239.77 689.64,300.44 780.3,243.76 689.64,300.44 780.79,247.79 689.64,300.44 
		781.9,251.36 689.64,300.44 782.45,255.15 689.64,300.44 782.15,259.23 689.64,300.44 781.67,263.23 689.64,300.44 781.12,267.12 
		689.64,300.44 781.43,270.59 689.64,300.44 781.21,274.16 689.64,300.44 781.62,277.49 689.64,300.44 781.09,280.98 689.64,300.44 
		779.54,284.57 689.64,300.44 778.52,287.93 689.64,300.44 778.54,291.08 689.64,300.44 777.83,294.26 689.64,300.44 776.63,297.39 
		689.64,300.44 775.05,300.42 689.64,300.44 773.16,303.34 689.64,300.44 772.66,306.23 689.64,300.44 771.4,309.02 689.64,300.44 
		771.26,311.9 689.64,300.44 771.63,314.88 689.64,300.44 770.46,317.6 689.64,300.44 768.85,320.18 689.64,300.44 767.04,322.62 
		689.64,300.44 765.24,324.99 689.64,300.44 763.34,327.25 689.64,300.44 761.64,329.52 689.64,300.44 760.45,331.96 689.64,300.44 
		759.52,334.51 689.64,300.44 758.86,337.23 689.64,300.44 758.01,339.9 689.64,300.44 755.87,341.81 689.64,300.44 752.95,343.13 
		689.64,300.44 750.23,344.45 689.64,300.44 747.17,345.38 689.64,300.44 744.19,346.2 689.64,300.44 740.78,346.47 689.64,300.44 
		739.32,348.41 689.64,300.44 738.16,350.67 689.64,300.44 736.09,352.01 689.64,300.44 733.61,352.83 689.64,300.44 731.06,353.45 
		689.64,300.44 729.12,354.76 689.64,300.44 727.67,356.8 689.64,300.44 726.04,358.68 689.64,300.44 723.64,359.32 689.64,300.44 
		721.63,360.58 689.64,300.44 720,362.68 689.64,300.44 718.17,364.5 689.64,300.44 715.85,365.29 689.64,300.44 713.21,365.2 
		689.64,300.44 710.52,364.68 689.64,300.44 708.39,365.81 689.64,300.44 706.1,366.43 689.64,300.44 703.78,366.96 689.64,300.44 
		701.52,367.79 689.64,300.44 699.25,368.8 689.64,300.44 696.87,369.18 689.64,300.44 694.45,369.19 689.64,300.44 692.05,369.4 
		689.64,300.44 689.64,369.58 689.64,300.44 	"/>
	<polyline clip-path="url(#SVGID_2_)" fill="none" stroke="#3339CC" stroke-linecap="round" stroke-miterlimit="10" points="
		259.99,158.19 259.99,500 259.99,158.19 259.99,27.69 259.99,158.19 264.65,24.98 259.99,158.19 	"/>
	<polyline clip-path="url(#SVGID_2_)" fill="none" stroke="#33CC67" stroke-linecap="round" stroke-miterlimit="10" points="
		124.14,252.32 124.14,500 124.14,252.32 40.98,196.23 124.14,252.32 41.38,192.2 124.14,252.32 42,188.14 124.14,252.32 
		42.77,184.04 124.14,252.32 43.77,179.96 124.14,252.32 44.32,175.24 124.14,252.32 45.33,170.72 124.14,252.32 46.7,166.32 
		124.14,252.32 48.7,162.42 124.14,252.32 51.35,159.15 124.14,252.32 54.07,155.88 124.14,252.32 56.46,151.98 124.14,252.32 
		59.61,149.05 124.14,252.32 62.55,145.65 124.14,252.32 65.76,142.53 124.14,252.32 69.32,139.92 124.14,252.32 72.93,137.3 
		124.14,252.32 76.98,135.59 124.14,252.32 80.99,133.78 124.14,252.32 85.04,131.98 124.14,252.32 89.09,130.09 124.14,252.32 
		92.95,127.22 124.14,252.32 97.06,124.92 124.14,252.32 101.27,122.65 124.14,252.32 105.61,120.49 124.14,252.32 110.11,118.86 
		124.14,252.32 114.71,117.44 124.14,252.32 119.37,115.6 124.14,252.32 124.14,113.97 124.14,252.32 129.01,112.94 124.14,252.32 
		133.74,115.03 124.14,252.32 138.41,116.58 124.14,252.32 142.96,118.42 124.14,252.32 147.47,120.04 124.14,252.32 151.86,121.89 
		124.14,252.32 156.17,123.87 124.14,252.32 160.27,126.33 124.14,252.32 163.93,129.86 124.14,252.32 167.4,133.47 124.14,252.32 
		170.67,137.16 124.14,252.32 174.08,140.16 124.14,252.32 177.58,142.76 124.14,252.32 181.14,145.13 124.14,252.32 184.34,148.05 
		124.14,252.32 187,151.72 124.14,252.32 189.4,155.57 124.14,252.32 192.12,158.76 124.14,252.32 194.94,161.7 124.14,252.32 
		197.14,165.32 124.14,252.32 198.75,169.46 124.14,252.32 200.24,173.52 124.14,252.32 202.09,177.05 124.14,252.32 203.37,180.98 
		124.14,252.32 205.16,184.34 124.14,252.32 207.34,187.32 124.14,252.32 209.4,190.38 124.14,252.32 211.73,193.24 124.14,252.32 
		213.99,196.18 124.14,252.32 	"/>
	<polyline clip-path="url(#SVGID_2_)" fill="none" stroke="#CCA133" stroke-linecap="round" stroke-miterlimit="10" points="
		223.02,360.42 223.02,500 223.02,360.42 209.73,233.97 223.02,360.42 213.94,230.62 223.02,360.42 218.38,227.53 223.02,360.42 
		223.02,224.96 223.02,360.42 227.83,222.67 223.02,360.42 232.63,222.88 223.02,360.42 237.36,223.97 223.02,360.42 242.08,224.77 
		223.02,360.42 	"/>
	<polyline clip-path="url(#SVGID_2_)" fill="none" stroke="#3394CC" stroke-linecap="round" stroke-miterlimit="10" points="
		563.28,372.32 563.28,500 563.28,372.32 563.28,241.82 563.28,372.32 567.93,239.11 563.28,372.32 572.62,238.66 563.28,372.32 	
		"/>
	<polyline clip-path="url(#SVGID_2_)" fill="none" stroke="#CC9733" stroke-linecap="round" stroke-miterlimit="10" points="
		346.79,199.81 346.79,500 346.79,199.81 337.84,71.86 346.79,199.81 342.21,68.8 346.79,199.81 346.79,65.82 346.79,199.81 
		351.55,63.24 346.79,199.81 356.32,63.46 346.79,199.81 361.06,64.01 346.79,199.81 	"/>
	<polyline clip-path="url(#SVGID_2_)" fill="none" stroke="#33CCB0" stroke-linecap="round" stroke-miterlimit="10" points="
		43.93,408.4 43.93,500 43.93,408.4 10.45,291.64 43.93,408.4 13.91,287.99 43.93,408.4 17.43,283.73 43.93,408.4 21.3,280.08 
		43.93,408.4 25.46,276.97 43.93,408.4 29.89,274.85 43.93,408.4 34.45,272.85 43.93,408.4 39.12,270.5 43.93,408.4 43.93,268.82 
		43.93,408.4 48.87,267.1 43.93,408.4 53.69,268.82 43.93,408.4 58.45,270.3 43.93,408.4 63.02,272.56 43.93,408.4 67.43,275.12 
		43.93,408.4 71.84,277.09 43.93,408.4 76.35,278.39 43.93,408.4 80.66,280.3 43.93,408.4 84.5,283.55 43.93,408.4 	"/>
	<polyline clip-path="url(#SVGID_2_)" fill="none" stroke="#338BCC" stroke-linecap="round" stroke-miterlimit="10" points="
		329.3,426.29 329.3,500 329.3,426.29 333.89,294.62 329.3,426.29 	"/>
	<polyline clip-path="url(#SVGID_2_)" fill="none" stroke="#339ECC" stroke-linecap="round" stroke-miterlimit="10" points="
		583.24,151.83 583.24,500 583.24,151.83 500.08,95.74 583.24,151.83 500.48,91.7 583.24,151.83 501.1,87.65 583.24,151.83 
		501.87,83.55 583.24,151.83 502.87,79.47 583.24,151.83 503.42,74.75 583.24,151.83 504.44,70.23 583.24,151.83 505.81,65.83 
		583.24,151.83 507.8,61.93 583.24,151.83 510.45,58.66 583.24,151.83 513.17,55.39 583.24,151.83 515.56,51.49 583.24,151.83 
		518.71,48.56 583.24,151.83 521.65,45.15 583.24,151.83 524.86,42.04 583.24,151.83 528.42,39.43 583.24,151.83 532.03,36.81 
		583.24,151.83 536.08,35.1 583.24,151.83 540.09,33.29 583.24,151.83 544.14,31.49 583.24,151.83 548.19,29.6 583.24,151.83 
		552.05,26.73 583.24,151.83 556.16,24.43 583.24,151.83 560.38,22.16 583.24,151.83 564.71,20 583.24,151.83 569.21,18.37 
		583.24,151.83 573.81,16.95 583.24,151.83 578.47,15.11 583.24,151.83 583.24,13.48 583.24,151.83 588.11,12.45 583.24,151.83 
		592.84,14.54 583.24,151.83 597.51,16.09 583.24,151.83 602.06,17.93 583.24,151.83 606.57,19.55 583.24,151.83 610.97,21.39 
		583.24,151.83 615.27,23.38 583.24,151.83 619.37,25.84 583.24,151.83 623.03,29.37 583.24,151.83 626.5,32.98 583.24,151.83 
		629.77,36.67 583.24,151.83 633.18,39.67 583.24,151.83 636.68,42.27 583.24,151.83 640.24,44.64 583.24,151.83 643.44,47.56 
		583.24,151.83 646.1,51.23 583.24,151.83 648.5,55.08 583.24,151.83 651.22,58.27 583.24,151.83 654.04,61.21 583.24,151.83 
		656.24,64.83 583.24,151.83 657.85,68.97 583.24,151.83 659.34,73.03 583.24,151.83 661.19,76.56 583.24,151.83 662.47,80.49 
		583.24,151.83 664.26,83.85 583.24,151.83 666.44,86.83 583.24,151.83 668.5,89.89 583.24,151.83 670.83,92.75 583.24,151.83 
		673.09,95.69 583.24,151.83 	"/>
	<polyline clip-path="url(#SVGID_2_)" fill="none" stroke="#CC6033" stroke-linecap="round" stroke-miterlimit="10" points="
		168.56,424.45 168.56,500 168.56,424.45 138.88,305.42 168.56,424.45 142.53,302 168.56,424.45 146.22,297.76 168.56,424.45 
		150.25,294.22 168.56,424.45 154.56,291.3 168.56,424.45 159.12,289.47 168.56,424.45 163.77,287.33 168.56,424.45 168.56,285.35 
		168.56,424.45 173.47,283.77 168.56,424.45 178.33,284.69 168.56,424.45 183.03,286.74 168.56,424.45 187.65,288.6 168.56,424.45 
		192.11,290.85 168.56,424.45 196.38,293.56 168.56,424.45 200.77,295.25 168.56,424.45 205.23,296.56 168.56,424.45 209.4,298.75 
		168.56,424.45 	"/>
	<polyline clip-path="url(#SVGID_2_)" fill="none" stroke="#63CC33" stroke-linecap="round" stroke-miterlimit="10" points="
		366.14,414.38 366.14,500 366.14,414.38 366.14,283.88 366.14,414.38 370.79,281.18 366.14,414.38 375.49,280.73 366.14,414.38 	
		"/>
	<polyline clip-path="url(#SVGID_2_)" fill="none" stroke="#33CCC2" stroke-linecap="round" stroke-miterlimit="10" points="
		317.43,150.46 317.43,500 317.43,150.46 252.54,61.14 317.43,150.46 254.44,57.07 317.43,150.46 256.31,52.65 317.43,150.46 
		258.21,47.89 317.43,150.46 260.35,43.12 317.43,150.46 263.1,39.06 317.43,150.46 266.39,35.83 317.43,150.46 269.92,32.87 
		317.43,150.46 273.47,29.68 317.43,150.46 277.28,26.88 317.43,150.46 281.38,24.74 317.43,150.46 285.68,23.1 317.43,150.46 
		290.09,21.83 317.43,150.46 294.44,20.08 317.43,150.46 298.75,17.52 317.43,150.46 303.23,15.34 317.43,150.46 307.86,13.66 
		317.43,150.46 312.62,12.67 317.43,150.46 317.43,11.45 317.43,150.46 322.31,10.57 317.43,150.46 327.08,12.45 317.43,150.46 
		331.85,13.29 317.43,150.46 336.46,15.04 317.43,150.46 340.85,17.62 317.43,150.46 345.11,20.24 317.43,150.46 349.18,23.11 
		317.43,150.46 353.07,26.17 317.43,150.46 356.89,29.02 317.43,150.46 360.99,30.78 317.43,150.46 365.38,31.77 317.43,150.46 
		369.31,33.94 317.43,150.46 372.78,36.97 317.43,150.46 376.46,39.43 317.43,150.46 379.49,42.97 317.43,150.46 382.35,46.57 
		317.43,150.46 384.65,50.8 317.43,150.46 386.77,55.02 317.43,150.46 388.37,59.66 317.43,150.46 390.15,63.8 317.43,150.46 	"/>
</g>
</svg>
